<svg xmlns="http://www.w3.org/2000/svg" width="300" height="300" viewBox="0 0 300 300">
  <g id="Group_51" data-name="Group 51" transform="translate(-241 -4375)">
    <g id="Rectangle_16" data-name="Rectangle 16" transform="translate(241 4375)" fill="none" stroke="#adb6cc" stroke-linejoin="round" stroke-width="1">
      <rect width="300" height="300" rx="2" stroke="none"/>
      <rect x="0.5" y="0.5" width="299" height="299" rx="1.5" fill="none"/>
    </g>
    <path id="Path_296" data-name="Path 296" d="M232.953,40.713h89.288V64.976" transform="translate(139.368 4420.129)" fill="none" stroke="#3151ff" stroke-miterlimit="10" stroke-width="2" stroke-dasharray="12"/>
    <path id="Path_297" data-name="Path 297" d="M322.241,64.976H232.953V40.713" transform="translate(107.319 4518.591)" fill="none" stroke="#3151ff" stroke-miterlimit="10" stroke-width="2" stroke-dasharray="12"/>
    <g id="Group_22" data-name="Group 22" transform="translate(291 4415)">
      <path id="Path_284" data-name="Path 284" d="M2.9,0H73.319a2.9,2.9,0,0,1,2.895,2.895V134.67a2.9,2.9,0,0,1-2.895,2.895H2.9A2.9,2.9,0,0,1,0,134.67V2.9A2.9,2.9,0,0,1,2.9,0Z" transform="translate(0 0)" fill="#3e3c55"/>
      <path id="Path_285" data-name="Path 285" d="M343.9,104.16a6.107,6.107,0,0,1-6.019,5.194h-26.02a6.107,6.107,0,0,1-6.019-5.2H292.065a2.862,2.862,0,0,0-2.862,2.862l0,123.432a2.862,2.862,0,0,0,2.862,2.862l65.831,0a2.862,2.862,0,0,0,2.862-2.862l0-123.433a2.862,2.862,0,0,0-2.862-2.862Z" transform="translate(-287.122 -98.531)" fill="#e6e6e6"/>
      <rect id="Rectangle_112" data-name="Rectangle 112" width="17.173" height="1.073" rx="0.537" transform="translate(29.356 6.023)" fill="#dbdbdb"/>
      <circle id="Ellipse_24" data-name="Ellipse 24" cx="0.644" cy="0.644" r="0.644" transform="translate(49.534 5.808)" fill="#dbdbdb"/>
      <rect id="Rectangle_117" data-name="Rectangle 117" width="63.803" height="111.327" rx="16" transform="translate(6.228 14.967)" fill="#fff"/>
      <g id="Group_20" data-name="Group 20" transform="translate(13.754 37.822)">
        <rect id="Rectangle_55" data-name="Rectangle 55" width="7.433" height="1.789" transform="translate(9.36)" fill="#3151ff"/>
        <rect id="Rectangle_56" data-name="Rectangle 56" width="2.615" height="1.789" transform="translate(39.918)" fill="#3151ff"/>
        <rect id="Rectangle_57" data-name="Rectangle 57" width="2.615" height="1.789" transform="translate(45.148)" fill="#3151ff"/>
        <rect id="Rectangle_58" data-name="Rectangle 58" width="17.757" height="1.789" transform="translate(19.408)" fill="#3151ff"/>
        <rect id="Rectangle_59" data-name="Rectangle 59" width="7.433" height="1.789" transform="translate(0 11.562)" fill="#3151ff"/>
        <rect id="Rectangle_60" data-name="Rectangle 60" width="2.615" height="1.789" transform="translate(30.558 11.562)" fill="#3151ff"/>
        <rect id="Rectangle_61" data-name="Rectangle 61" width="2.615" height="1.789" transform="translate(35.788 11.562)" fill="#3151ff"/>
        <rect id="Rectangle_62" data-name="Rectangle 62" width="17.757" height="1.789" transform="translate(10.048 11.562)" fill="#3151ff"/>
        <rect id="Rectangle_63" data-name="Rectangle 63" width="7.433" height="1.789" transform="translate(30.695 3.992)" fill="#3151ff"/>
        <rect id="Rectangle_64" data-name="Rectangle 64" width="7.433" height="1.789" transform="translate(40.744 3.992)" fill="#3151ff"/>
        <rect id="Rectangle_66" data-name="Rectangle 66" width="2.615" height="1.789" transform="translate(0 3.992)" fill="#3151ff"/>
        <rect id="Rectangle_67" data-name="Rectangle 67" width="2.615" height="1.789" transform="translate(5.231 3.992)" fill="#3151ff"/>
        <rect id="Rectangle_68" data-name="Rectangle 68" width="17.757" height="1.789" transform="translate(10.461 3.992)" fill="#3151ff"/>
        <rect id="Rectangle_69" data-name="Rectangle 69" width="7.433" height="1.789" transform="translate(15.279 7.846)" fill="#3151ff"/>
        <rect id="Rectangle_70" data-name="Rectangle 70" width="7.433" height="1.789" transform="translate(5.231 7.846)" fill="#3151ff"/>
        <rect id="Rectangle_71" data-name="Rectangle 71" width="2.615" height="1.789" transform="translate(0 7.846)" fill="#3151ff"/>
        <rect id="Rectangle_73" data-name="Rectangle 73" width="2.615" height="1.789" transform="translate(45.562 7.846)" fill="#3151ff"/>
        <rect id="Rectangle_74" data-name="Rectangle 74" width="17.757" height="1.789" transform="translate(25.19 7.846)" fill="#3151ff"/>
      </g>
      <rect id="Rectangle_114" data-name="Rectangle 114" width="36.234" height="11.29" rx="5.645" transform="translate(19.882 70.63)" fill="#3151ff"/>
      <rect id="Rectangle_115" data-name="Rectangle 115" width="36.234" height="11.29" rx="5.645" transform="translate(19.882 90.585)" fill="#e6e6e6"/>
    </g>
    <g id="Group_23" data-name="Group 23" transform="translate(434.438 4491.693)">
      <path id="Path_284-2" data-name="Path 284" d="M2.149,0H54.414a2.148,2.148,0,0,1,2.148,2.148v97.8a2.148,2.148,0,0,1-2.148,2.148H2.149A2.148,2.148,0,0,1,0,99.946V2.149A2.148,2.148,0,0,1,2.149,0Z" transform="translate(0 0)" fill="#3e3c55"/>
      <path id="Path_285-2" data-name="Path 285" d="M329.8,104.159a4.532,4.532,0,0,1-4.467,3.855h-19.31a4.532,4.532,0,0,1-4.467-3.855H291.327a2.123,2.123,0,0,0-2.123,2.123l0,91.606a2.123,2.123,0,0,0,2.123,2.123H340.18a2.123,2.123,0,0,0,2.123-2.123l0-91.606a2.123,2.123,0,0,0-2.123-2.123Z" transform="translate(-287.658 -99.981)" fill="#e6e6e6"/>
      <rect id="Rectangle_112-2" data-name="Rectangle 112" width="12.745" height="0.797" rx="0.398" transform="translate(21.787 4.47)" fill="#dbdbdb"/>
      <circle id="Ellipse_24-2" data-name="Ellipse 24" cx="0.478" cy="0.478" r="0.478" transform="translate(36.762 4.311)" fill="#dbdbdb"/>
      <g id="Rectangle_117-2" data-name="Rectangle 117" transform="translate(4.694 10.741)" fill="#fff" stroke="#3e3c55" stroke-width="1">
        <rect width="47.261" height="82.707" rx="16" stroke="none"/>
        <rect x="0.5" y="0.5" width="46.261" height="81.707" rx="15.5" fill="none"/>
      </g>
      <g id="Rectangle_118" data-name="Rectangle 118" transform="translate(10.208 28.07)" fill="#fff" stroke="#707070" stroke-width="2">
        <rect width="35.709" height="9.977" stroke="none"/>
        <rect x="1" y="1" width="33.709" height="7.977" fill="none"/>
      </g>
      <g id="Rectangle_114-2" data-name="Rectangle 114" transform="translate(14.671 52.488)" fill="#fff" stroke="#3e3c55" stroke-width="2">
        <rect width="27.044" height="8.402" stroke="none"/>
        <rect x="1" y="1" width="25.044" height="6.402" fill="none"/>
      </g>
      <g id="Rectangle_119" data-name="Rectangle 119" transform="translate(14.671 65.354)" fill="#fff" stroke="#3e3c55" stroke-width="2">
        <rect width="27.044" height="8.402" stroke="none"/>
        <rect x="1" y="1" width="25.044" height="6.402" fill="none"/>
      </g>
    </g>
    <text id="UI_UX_DESIGN" data-name="UI / UX DESIGN" transform="translate(328 4650)" font-size="20" font-family="SourceSansPro-Semibold, Source Sans Pro" font-weight="600"><tspan x="0" y="0">UI / UX DESIGN</tspan></text>
  </g>
</svg>
