<svg xmlns="http://www.w3.org/2000/svg" width="300" height="300" viewBox="0 0 300 300">
  <g id="Group_52" data-name="Group 52" transform="translate(-620 -4375)">
    <g id="Rectangle_16" data-name="Rectangle 16" transform="translate(620 4375)" fill="none" stroke="#adb6cc" stroke-linejoin="round" stroke-width="1">
      <rect width="300" height="300" rx="2" stroke="none"/>
      <rect x="0.5" y="0.5" width="299" height="299" rx="1.5" fill="none"/>
    </g>
    <text id="MOBILE_APP_DEVELOPENT" data-name="MOBILE APP DEVELOPENT" transform="translate(659 4650)" font-size="20" font-family="SourceSansPro-Semibold, Source Sans Pro" font-weight="600"><tspan x="0" y="0">MOBILE APP DEVELOPENT</tspan></text>
    <g id="Group_17" data-name="Group 17" transform="translate(820.141 4486.425)">
      <path id="Path_125" data-name="Path 125" d="M831.954,206.98c-.482-3.781,1.029-7.672.13-11.374-.691-2.859-2.738-5.246-3.41-8.11-.988-4.245,1.272-8.6,4.157-11.864,1.984-2.247,4.474-4.285,7.443-4.693a10.036,10.036,0,0,1,5.409.889,13.724,13.724,0,0,1,7.378,8.105c.391,1.16.617,2.374,1.1,3.5.828,1.938,2.347,3.5,3.292,5.388a10.224,10.224,0,0,1,.343,8.267c-1.094,2.73-3.39,5.014-3.729,7.936-.247,2.105.544,4.412-.482,6.267-.774,1.4-2.369,2.107-3.878,2.636-3.508,1.22-8.418,3.2-11.938,1.315A11.2,11.2,0,0,1,831.954,206.98Z" transform="translate(-808.646 -152.714)" fill="#e6e6e6"/>
      <path id="Path_126" data-name="Path 126" d="M931,389.976s3.85-1.553,4.336-2.427,1.165-6.019,1.165-6.019" transform="translate(-897.836 -334.124)" fill="none" stroke="#d0cde1" stroke-miterlimit="10" stroke-width="3"/>
      <line id="Line_2" data-name="Line 2" y1="37.531" x2="0.117" transform="translate(33.114 44.537)" fill="none" stroke="#d0cde1" stroke-miterlimit="10" stroke-width="3"/>
      <path id="Path_173" data-name="Path 173" d="M832.522,212.758c-.559-4.385,1.193-8.9.151-13.193-.8-3.316-3.176-6.085-3.956-9.408-1.145-4.924,1.476-9.981,4.823-13.761,2.3-2.606,5.19-4.971,8.634-5.444a11.641,11.641,0,0,1,6.274,1.031,15.919,15.919,0,0,1,8.559,9.4c.454,1.346.715,2.753,1.273,4.059.96,2.249,2.722,4.063,3.818,6.25a11.859,11.859,0,0,1,.4,9.589c-1.269,3.167-3.932,5.816-4.325,9.2-.286,2.442.631,5.118-.559,7.268-.9,1.624-2.748,2.445-4.5,3.058-4.069,1.416-9.765,3.714-13.848,1.526A12.972,12.972,0,0,1,832.522,212.758Z" transform="translate(-828.445 -170.86)" fill="#3151ff"/>
      <line id="Line_3" data-name="Line 3" y1="52.172" transform="translate(15.451 29.896)" fill="none" stroke="#333" stroke-miterlimit="10" stroke-width="3"/>
      <path id="Path_174" data-name="Path 174" d="M931,394.686s6-2.42,6.754-3.781,1.814-9.376,1.814-9.376" transform="translate(-915.491 -349.671)" fill="none" stroke="#333" stroke-miterlimit="10" stroke-width="3"/>
    </g>
    <g id="Group_18" data-name="Group 18" transform="translate(731.023 4415)">
      <path id="Path_102" data-name="Path 102" d="M442.22,351" transform="translate(-425.523 -302.289)" fill="none"/>
      <rect id="Rectangle_50" data-name="Rectangle 50" width="85.021" height="153.463" rx="25" transform="translate(0 0.207) rotate(-0.14)" fill="#2f2e41"/>
      <path id="Path_122" data-name="Path 122" d="M515.118,262.606a3.16,3.16,0,0,1-3.148,3.17l-72.647.176a3.16,3.16,0,0,1-3.165-3.154l-.05-21.346-.278-115.1a3.16,3.16,0,0,1,3.148-3.171l15.194-.036a6.744,6.744,0,0,0,6.647,5.725l28.707-.069a6.746,6.746,0,0,0,6.645-5.757l15.432-.038a3.16,3.16,0,0,1,3.165,3.154l.3,115.289Z" transform="translate(-432.746 -117.763)" fill="#fff"/>
      <path id="Path_123" data-name="Path 123" d="M516.287,642.6a3.2,3.2,0,0,1-3.159,3.238l-72.9.18a3.2,3.2,0,0,1-3.176-3.22L437,621h79.235Z" transform="translate(-433.917 -496.304)" fill="#e6e6e6"/>
      <rect id="Rectangle_51" data-name="Rectangle 51" width="18.946" height="1.185" rx="0.592" transform="translate(32.336 5.843) rotate(-0.86)" fill="#fff"/>
      <circle id="Ellipse_2" data-name="Ellipse 2" cx="0.712" cy="0.712" r="0.712" transform="translate(54.588 5.268) rotate(-0.86)" fill="#fff"/>
      <g id="Group_11" data-name="Group 11" transform="translate(7.489 25.1)">
        <rect id="Rectangle_52" data-name="Rectangle 52" width="14.964" height="14.964" rx="7.482" fill="#e6e6e6"/>
        <rect id="Rectangle_53" data-name="Rectangle 53" width="14.964" height="14.964" rx="7.482" transform="translate(18.471)" fill="#e6e6e6"/>
        <rect id="Rectangle_54" data-name="Rectangle 54" width="14.964" height="14.964" rx="7.482" transform="translate(36.943)" fill="#e6e6e6"/>
        <rect id="Rectangle_55" data-name="Rectangle 55" width="14.964" height="14.964" rx="7.482" transform="translate(55.414)" fill="#e6e6e6"/>
      </g>
      <rect id="Rectangle_56" data-name="Rectangle 56" width="14.959" height="14.959" rx="7.479" transform="translate(7.489 47.532)" fill="#3151ff"/>
      <rect id="Rectangle_57" data-name="Rectangle 57" width="14.959" height="14.959" rx="7.479" transform="translate(25.953 47.532)" fill="#e6e6e6"/>
      <rect id="Rectangle_58" data-name="Rectangle 58" width="14.959" height="14.959" rx="7.479" transform="translate(44.418 47.532)" fill="#e6e6e6"/>
      <rect id="Rectangle_59" data-name="Rectangle 59" width="14.959" height="14.959" rx="7.479" transform="translate(62.882 47.532)" fill="#e6e6e6"/>
      <g id="Group_12" data-name="Group 12" transform="translate(7.489 69.993)">
        <rect id="Rectangle_60" data-name="Rectangle 60" width="14.964" height="14.964" rx="7.482" fill="#e6e6e6"/>
        <rect id="Rectangle_61" data-name="Rectangle 61" width="14.964" height="14.964" rx="7.482" transform="translate(18.471)" fill="#e6e6e6"/>
        <rect id="Rectangle_62" data-name="Rectangle 62" width="14.964" height="14.964" rx="7.482" transform="translate(36.943)" fill="#e6e6e6"/>
        <rect id="Rectangle_63" data-name="Rectangle 63" width="14.964" height="14.964" rx="7.482" transform="translate(55.414)" fill="#e6e6e6"/>
      </g>
      <g id="Group_13" data-name="Group 13" transform="translate(7.489 92.439)">
        <rect id="Rectangle_64" data-name="Rectangle 64" width="14.964" height="14.964" rx="7.482" fill="#e6e6e6"/>
        <rect id="Rectangle_65" data-name="Rectangle 65" width="14.964" height="14.964" rx="7.482" transform="translate(18.471)" fill="#e6e6e6"/>
        <rect id="Rectangle_66" data-name="Rectangle 66" width="14.964" height="14.964" rx="7.482" transform="translate(36.943)" fill="#e6e6e6"/>
        <rect id="Rectangle_67" data-name="Rectangle 67" width="14.964" height="14.964" rx="7.482" transform="translate(55.414)" fill="#e6e6e6"/>
      </g>
      <g id="Group_15" data-name="Group 15" transform="translate(6.373 129.553)">
        <rect id="Rectangle_72" data-name="Rectangle 72" width="15.542" height="15.542" rx="7.771" fill="#3151ff"/>
        <rect id="Rectangle_73" data-name="Rectangle 73" width="15.542" height="15.542" rx="7.771" transform="translate(19.184)" fill="#3151ff"/>
        <rect id="Rectangle_74" data-name="Rectangle 74" width="15.542" height="15.542" rx="7.771" transform="translate(38.369)" fill="#3151ff"/>
        <rect id="Rectangle_75" data-name="Rectangle 75" width="15.542" height="15.542" rx="7.771" transform="translate(57.553)" fill="#3151ff"/>
      </g>
    </g>
    <g id="Group_16" data-name="Group 16" transform="translate(696.458 4453.968)">
      <path id="Path_159" data-name="Path 159" d="M466.809,313.456v3.406l-4.059,5.947,4.059,2.642s1.8-6.95,2.776-7.768a9.124,9.124,0,0,0,2.359-2.589c.831-1.5.416-6.678-3.61-2.045v.546Z" transform="translate(-428.405 -299.966)" fill="#fda57d"/>
      <path id="Path_160" data-name="Path 160" d="M334.714,344.7l1.608-3.214a.6.6,0,0,1,.5-.33l6.1-.312a.595.595,0,0,1,.586.809l-1.575,4.071a.6.6,0,0,1-.608.378l-6.134-.546a.595.595,0,0,1-.482-.855Z" transform="translate(-327.928 -325.065)" fill="#fda57d"/>
      <path id="Path_161" data-name="Path 161" d="M192.43,253.4l-1.037,3.039,10.646-.382-4.089-2.454Z" transform="translate(-185.192 -235.146)" fill="#edeef9"/>
      <path id="Path_163" data-name="Path 163" d="M311.394,502.32a10.127,10.127,0,0,1-.718,6.238c-1.5,3.135-1.5,6.411.409,10.221l.546,19.762s.681,9.269,0,11.176.267,11.042.267,11.042h7.633v-6.134L322.12,536.5v-9.27l4.642,9.678-5.305,22.353,6.95,2.863,8.722-25.078s-1.512-19.762-6.963-26.575l-1.026-7.43Z" transform="translate(-308.412 -450.848)" fill="#3f3d56"/>
      <path id="Path_164" data-name="Path 164" d="M319.4,771.732V766.69h7.768s.546,2.045,4.089,2.454-1.636,2.863-1.636,2.863Z" transform="translate(-316.047 -657.219)" fill="#3f3d56"/>
      <path id="Path_165" data-name="Path 165" d="M357.36,758.163l1.352-4.863,6.726,2.136s.735,2.064,4.039,3.408c2.251.915-.2,1.968-.2,1.968l-.885.228Z" transform="translate(-345.395 -645.908)" fill="#3f3d56"/>
      <path id="Path_166" data-name="Path 166" d="M335.458,504.888l-17.748-.718a9.93,9.93,0,0,1,.135,3.219,2.128,2.128,0,0,0,2.553,1.388l15.529-.478Z" transform="translate(-314.731 -452.289)" opacity="0.1"/>
      <path id="Path_167" data-name="Path 167" d="M310.788,360.68l-.707.48a13.316,13.316,0,0,0-5.63,13.427h0s3.952,7.737,2.726,15.474S309.9,396.6,309.9,396.6l15.606-.481,1.158-23.465s9.4,1.337,13.63-1.934l3.407-5.2-5.179-3.574-1.768,2.528a66.6,66.6,0,0,1-8.6-2.41,13.022,13.022,0,0,0-4.47-.957Z" transform="translate(-304.231 -340.518)" fill="#3151ff"/>
      <path id="Path_168" data-name="Path 168" d="M334.283,531.47s-.955,4.77,4.5,12.675" transform="translate(-327.59 -473.554)" opacity="0.1"/>
      <path id="Path_169" data-name="Path 169" d="M406,407.257s6.541-2.18,9.4-2.18,2.385,1.236,2.385,1.236S413.231,408.346,406,407.257Z" transform="translate(-383.504 -375.1)" opacity="0.1"/>
      <path id="Path_170" data-name="Path 170" d="M362.585,342.1l-2.6.312c-.082,0-.157.113-.2.274.573,1.032,1.289,1.647,2.067,1.647a1.608,1.608,0,0,0,.789-.22l.2-1.2C362.9,342.5,362.769,342.075,362.585,342.1Z" transform="translate(-347.501 -326.042)" opacity="0.1"/>
      <circle id="Ellipse_3" data-name="Ellipse 3" cx="7.949" cy="7.949" r="7.949" transform="translate(5.318 2.115)" fill="#fda57d"/>
      <path id="Path_171" data-name="Path 171" d="M339.436,275.511h0l-.407.367a1.375,1.375,0,0,0,.4,2.284h0s-3.561,3.561-4.056,4.222.082,2.4.082,2.4,1.574,2.9-6.707,2.235c0,0-5.464-1.158-4.885-8.528.057-.738-1.158-2.653,2.485-3.643h0a5.014,5.014,0,0,1,3.84-4.355,13.9,13.9,0,0,1,4.311-.378A5.411,5.411,0,0,1,339.436,275.511Z" transform="translate(-319.406 -269.947)" opacity="0.1"/>
      <path id="Path_172" data-name="Path 172" d="M339.117,274.6h0s.844.261.884,3.031l-1.2-.082s-2.776,7.427-2.485,6.459c1.077-3.561-1.077-2.9-1.574-2.235s.082,2.4.082,2.4,1.574,2.9-6.707,2.235c0,0-5.464-1.158-4.885-8.528.057-.738-1.158-2.653,2.485-3.643h0a5.014,5.014,0,0,1,3.832-4.357,13.9,13.9,0,0,1,4.311-.378C336.663,269.741,339.117,271.8,339.117,274.6Z" transform="translate(-318.915 -269.471)" fill="#72351c"/>
    </g>
    <path id="Path_142" data-name="Path 142" d="M982.231,604.41s-3.471-11.783.661-20.457a18.614,18.614,0,0,0,1.5-11.673,31.309,31.309,0,0,0-1.654-5.48" transform="translate(-304.028 3964.085)" fill="none" stroke="#d0cde1" stroke-miterlimit="10" stroke-width="2"/>
    <path id="Path_143" data-name="Path 143" d="M982.489,532.621c0,1.445-2.614,5.632-2.614,5.632s-2.614-4.185-2.614-5.632a2.615,2.615,0,0,1,5.231,0Z" transform="translate(-301.216 3992.776)" fill="#e6e6e6"/>
    <path id="Path_144" data-name="Path 144" d="M1002.005,563.9c-.784,1.211-5.255,3.3-5.255,3.3s.081-4.936.866-6.149a2.615,2.615,0,1,1,4.39,2.843Z" transform="translate(-316.193 3969.496)" fill="#e6e6e6"/>
    <path id="Path_145" data-name="Path 145" d="M997.787,622.738c-1.288.661-6.207.2-6.207.2s2.562-4.22,3.852-4.872a2.615,2.615,0,1,1,2.354,4.669Z" transform="translate(-312.382 3924.329)" fill="#e6e6e6"/>
    <path id="Path_146" data-name="Path 146" d="M986.993,670.389c-1.161.859-6.083,1.247-6.083,1.247s1.813-4.592,2.973-5.451a2.615,2.615,0,0,1,3.11,4.2Z" transform="translate(-304.062 3886.99)" fill="#e6e6e6"/>
    <path id="Path_147" data-name="Path 147" d="M969.248,578.808c1.035,1.007,5.863,2.048,5.863,2.048s-1.183-4.795-2.218-5.8a2.614,2.614,0,0,0-3.645,3.744Z" transform="translate(-294.402 3958.176)" fill="#e6e6e6"/>
    <path id="Path_148" data-name="Path 148" d="M954.3,631.878c1.288.661,6.207.2,6.207.2s-2.562-4.22-3.852-4.872a2.615,2.615,0,1,0-2.354,4.669Z" transform="translate(-282.191 3917.202)" fill="#e6e6e6"/>
    <path id="Path_149" data-name="Path 149" d="M950.877,687.739c1.161.859,6.083,1.247,6.083,1.247s-1.813-4.592-2.973-5.451a2.615,2.615,0,0,0-3.11,4.2Z" transform="translate(-279.817 3873.461)" fill="#e6e6e6"/>
    <rect id="Rectangle_22" data-name="Rectangle 22" width="199.894" height="0.358" transform="translate(670.014 4568.59)" fill="#2f2e41"/>
  </g>
</svg>
