<svg xmlns="http://www.w3.org/2000/svg" xmlns:xlink="http://www.w3.org/1999/xlink" width="300" height="300" viewBox="0 0 300 300">
  <defs>
    <linearGradient id="linear-gradient" x1="0.5" y1="1" x2="0.5" gradientUnits="objectBoundingBox">
      <stop offset="0" stop-color="gray" stop-opacity="0.251"/>
      <stop offset="0.54" stop-color="gray" stop-opacity="0.122"/>
      <stop offset="1" stop-color="gray" stop-opacity="0.102"/>
    </linearGradient>
    <linearGradient id="linear-gradient-2" x1="0.5" y1="1" x2="0.5" y2="0" xlink:href="#linear-gradient"/>
    <linearGradient id="linear-gradient-3" x1="0.5" y1="1" x2="0.5" y2="0" xlink:href="#linear-gradient"/>
    <linearGradient id="linear-gradient-4" x1="0.5" y1="1.001" x2="0.5" y2="-0.002" xlink:href="#linear-gradient"/>
  </defs>
  <g id="Group_53" data-name="Group 53" transform="translate(-999 -4375)">
    <g id="Rectangle_16" data-name="Rectangle 16" transform="translate(999 4375)" fill="none" stroke="#adb6cc" stroke-linejoin="round" stroke-width="1">
      <rect width="300" height="300" rx="2" stroke="none"/>
      <rect x="0.5" y="0.5" width="299" height="299" rx="1.5" fill="none"/>
    </g>
    <text id="WEB_DEVELOPMENT" data-name="WEB DEVELOPMENT" transform="translate(1063 4650)" font-size="20" font-family="SourceSansPro-Semibold, Source Sans Pro" font-weight="600"><tspan x="0" y="0">WEB DEVELOPMENT</tspan></text>
    <path id="Path_23" data-name="Path 23" d="M314.257,555.119c-.361-1.492-1.549-2.616-2.423-3.879a10.507,10.507,0,0,1-.645-10.66c.841-1.6,2.158-3.253,1.681-5a4.864,4.864,0,0,0-2.423-2.61,23.71,23.71,0,0,0-13.148-3.381c-5.661.231-11.3,2.492-16.855,1.372-5.407-1.095-9.988-3.806-15.645-4.127-4.226-.24-8.406.029-12.64-.433a187.4,187.4,0,0,0-31.506-.752,187.4,187.4,0,0,0-31.5.752c-4.224.462-8.406.193-12.64.433-5.674.319-10.244,3.034-15.653,4.127-5.554,1.122-11.194-1.141-16.855-1.372a23.71,23.71,0,0,0-13.148,3.381,4.841,4.841,0,0,0-2.423,2.61c-.475,1.744.841,3.4,1.681,5a10.507,10.507,0,0,1-.641,10.66c-.874,1.261-2.061,2.387-2.423,3.879-.727,3,2.19,5.644,5.043,6.836,7.786,3.255,17.255,1.681,24.376,6.214,3.192,2.034,5.985,5.3,9.767,5.422,2.557.082,4.884-1.339,7.117-2.589a68.234,68.234,0,0,1,10.446-4.743c3.152-1.122,6.491-2.022,9.818-1.65,5.079.561,27.034,11.169,36.932,4.9,6.779-4.3,12.066-4.333,17.158-4.9,3.327-.372,6.664.527,9.818,1.65A68.246,68.246,0,0,1,267.967,571c2.232,1.25,4.56,2.671,7.117,2.589,3.783-.122,6.575-3.387,9.767-5.422,7.117-4.535,16.584-2.959,24.376-6.214C312.067,560.757,314.986,558.122,314.257,555.119Z" transform="translate(922.66 4015.626)" opacity="0.5" fill="url(#linear-gradient)"/>
    <path id="Path_24" data-name="Path 24" d="M317.122,556.083c-.357-1.471-1.532-2.589-2.4-3.837a10.4,10.4,0,0,1-.63-10.543c.841-1.582,2.135-3.217,1.664-4.943a4.811,4.811,0,0,0-2.4-2.581,23.449,23.449,0,0,0-13-3.345c-5.6.227-11.177,2.465-16.67,1.355-5.35-1.08-9.877-3.766-15.481-4.083-4.18-.235-8.322.029-12.5-.42a185.341,185.341,0,0,0-31.159-.744,185.342,185.342,0,0,0-31.159.744c-4.178.458-8.319.191-12.5.42-5.6.315-10.131,3-15.481,4.083-5.491,1.11-11.072-1.128-16.67-1.355a23.449,23.449,0,0,0-13,3.345,4.84,4.84,0,0,0-2.4,2.581c-.471,1.725.841,3.362,1.664,4.943a10.4,10.4,0,0,1-.63,10.543c-.866,1.248-2.038,2.36-2.4,3.837-.738,2.967,2.148,5.581,4.966,6.75,7.7,3.217,17.065,1.66,24.1,6.144,3.152,2.011,5.92,5.243,9.666,5.363,2.522.082,4.833-1.324,7.04-2.562a67.491,67.491,0,0,1,10.333-4.692c3.121-1.112,6.42-2,9.71-1.633,5.043.563,26.751,11.047,36.531,4.848,6.706-4.249,11.934-4.285,16.969-4.848,3.291-.368,6.592.521,9.711,1.633a67.491,67.491,0,0,1,10.333,4.692c2.209,1.236,4.51,2.641,7.04,2.562,3.74-.12,6.5-3.35,9.666-5.363,7.04-4.484,16.4-2.927,24.1-6.144C314.957,561.665,317.842,559.05,317.122,556.083Z" transform="translate(918.766 4014.601)" fill="#3151ff"/>
    <path id="Path_25" data-name="Path 25" d="M131.447,362.894a3.793,3.793,0,0,1,1.868-.3,2.98,2.98,0,0,1,2.1,2.2,29.209,29.209,0,0,1,.5,3.152,3.647,3.647,0,0,0,1.618,2.639,5.218,5.218,0,0,0,3.1.183,19.56,19.56,0,0,1,4.125-.038c1.152.111,2.5.5,2.843,1.608.277.9-.273,1.826-.63,2.7a6.275,6.275,0,0,0,.044,5.142c.784,1.584,2.372,2.765,3.037,4.438a2.194,2.194,0,0,1,.16,1.339,2.442,2.442,0,0,1-.475.862c-.521.67-1.143,1.261-1.618,1.967a10.122,10.122,0,0,0-1.374,5.066,36.946,36.946,0,0,0,.029,5.218c-1.29-.42-2.715-.046-4.045-.322-2.831-.584-4.6-3.934-7.481-4.138-1.364-.1-2.831.546-4.047-.078a3.055,3.055,0,0,1-1.294-1.471,5.22,5.22,0,0,1-.332-3.509,7.24,7.24,0,0,0,.548-2.44,3.306,3.306,0,0,0-.99-1.868c-1.4-1.488-3.436-2.4-4.442-4.178a4.76,4.76,0,0,1,.565-5.356,14.055,14.055,0,0,0,1.019-1.107,4.675,4.675,0,0,0,.7-2.375c.139-2-.21-4.115.443-6.056C128,364.416,129.792,363.483,131.447,362.894Z" transform="translate(924.884 4144.172)" fill="#3151ff" opacity="0.6"/>
    <path id="Path_26" data-name="Path 26" d="M159.14,364.42s5.739,31.872,13.19,35.673" transform="translate(897.221 4142.706)" fill="none" stroke="#535461" stroke-miterlimit="10" stroke-width="1" opacity="0.6"/>
    <path id="Path_27" data-name="Path 27" d="M188.937,406.4s-6.147.841-12.287,7.155" transform="translate(883.391 4109.547)" fill="none" stroke="#535461" stroke-miterlimit="10" stroke-width="1" opacity="0.6"/>
    <path id="Path_28" data-name="Path 28" d="M136.231,443.3a15.935,15.935,0,0,0-12.121-3.839" transform="translate(924.89 4083.502)" fill="none" stroke="#535461" stroke-miterlimit="10" stroke-width="1" opacity="0.6"/>
    <path id="Path_29" data-name="Path 29" d="M203.539,467.64s-8.633.733-11.829,4.047" transform="translate(871.495 4061.176)" fill="none" stroke="#535461" stroke-miterlimit="10" stroke-width="1" opacity="0.6"/>
    <path id="Path_30" data-name="Path 30" d="M162.924,501.155a14.324,14.324,0,0,0-9.294,2.007" transform="translate(901.573 4034.796)" fill="none" stroke="#535461" stroke-miterlimit="10" stroke-width="1" opacity="0.6"/>
    <path id="Path_31" data-name="Path 31" d="M891.246,243a6.026,6.026,0,0,0-2.995-.481,4.77,4.77,0,0,0-3.362,3.528,48.392,48.392,0,0,0-.8,5.064,5.853,5.853,0,0,1-2.593,4.23c-1.509.807-3.291.488-4.966.294a31.354,31.354,0,0,0-6.607-.069c-1.847.179-4.014.8-4.556,2.576-.443,1.45.437,2.925,1.026,4.323a10.049,10.049,0,0,1-.071,8.244c-1.28,2.585-3.8,4.434-4.867,7.113a3.522,3.522,0,0,0-.256,2.143,3.915,3.915,0,0,0,.763,1.383c.841,1.076,1.832,2.024,2.593,3.152,1.587,2.354,2.017,5.287,2.2,8.12a59.217,59.217,0,0,1-.046,8.361c2.068-.681,4.354-.074,6.485-.513,4.537-.935,7.37-6.3,11.991-6.632,2.185-.153,4.537.874,6.487-.126a4.9,4.9,0,0,0,2.076-2.366,8.368,8.368,0,0,0,.5-5.611c-.343-1.3-1.009-2.572-.878-3.911a5.276,5.276,0,0,1,1.587-2.992c2.246-2.385,5.508-3.843,7.122-6.7a7.631,7.631,0,0,0-.906-8.586,22.842,22.842,0,0,1-1.635-1.776,7.372,7.372,0,0,1-1.116-3.806c-.221-3.2.324-6.594-.712-9.706C896.762,245.433,893.893,243.935,891.246,243Z" transform="translate(342.756 4239.027)" fill="#3151ff" opacity="0.6"/>
    <path id="Path_32" data-name="Path 32" d="M924.754,245.4s-9.2,51.087-21.144,57.179" transform="translate(309.193 4236.715)" fill="none" stroke="#535461" stroke-miterlimit="10" stroke-width="1" opacity="0.6"/>
    <path id="Path_33" data-name="Path 33" d="M882.44,312.69s9.851,1.353,19.694,11.471" transform="translate(325.915 4183.565)" fill="none" stroke="#535461" stroke-miterlimit="10" stroke-width="1" opacity="0.6"/>
    <path id="Path_34" data-name="Path 34" d="M967.92,371.833a25.524,25.524,0,0,1,19.427-6.155" transform="translate(258.397 4141.826)" fill="none" stroke="#535461" stroke-miterlimit="10" stroke-width="1" opacity="0.6"/>
    <path id="Path_35" data-name="Path 35" d="M861.85,410.85s13.836,1.175,18.959,6.489" transform="translate(342.178 4106.032)" fill="none" stroke="#535461" stroke-miterlimit="10" stroke-width="1" opacity="0.6"/>
    <path id="Path_36" data-name="Path 36" d="M942.17,464.562a22.892,22.892,0,0,1,14.9,3.215" transform="translate(278.736 4063.756)" fill="none" stroke="#535461" stroke-miterlimit="10" stroke-width="1" opacity="0.6"/>
    <path id="Path_37" data-name="Path 37" d="M74.91,0V104.061H227.666V0Z" transform="translate(989.821 4461)" fill="url(#linear-gradient-2)"/>
    <rect id="Rectangle_39" data-name="Rectangle 39" width="148.873" height="97.456" transform="translate(1066.996 4465.722)" fill="#fff"/>
    <rect id="Rectangle_40" data-name="Rectangle 40" width="148.873" height="7.17" transform="translate(1066.996 4461.086)" fill="#eee"/>
    <circle id="Ellipse_10" data-name="Ellipse 10" cx="1.738" cy="1.738" r="1.738" transform="translate(1070.924 4462.824)" fill="#ff5252"/>
    <circle id="Ellipse_11" data-name="Ellipse 11" cx="1.738" cy="1.738" r="1.738" transform="translate(1075.704 4462.824)" fill="#ff0"/>
    <circle id="Ellipse_12" data-name="Ellipse 12" cx="1.738" cy="1.738" r="1.738" transform="translate(1080.485 4462.824)" fill="#69f0ae"/>
    <rect id="Rectangle_41" data-name="Rectangle 41" width="55.477" height="2.312" transform="translate(1072.702 4479.74)" fill="#3151ff" opacity="0.5"/>
    <rect id="Rectangle_42" data-name="Rectangle 42" width="55.477" height="2.312" transform="translate(1072.702 4484.363)" fill="#3151ff" opacity="0.5"/>
    <rect id="Rectangle_43" data-name="Rectangle 43" width="55.477" height="2.312" transform="translate(1072.702 4488.986)" fill="#3151ff" opacity="0.5"/>
    <rect id="Rectangle_44" data-name="Rectangle 44" width="36.354" height="2.312" transform="translate(1091.824 4493.609)" fill="#3151ff" opacity="0.5"/>
    <rect id="Rectangle_45" data-name="Rectangle 45" width="29.209" height="2.312" transform="translate(1072.702 4498.232)" fill="#3151ff" opacity="0.5"/>
    <rect id="Rectangle_46" data-name="Rectangle 46" width="22.485" height="2.312" transform="translate(1088.462 4502.855)" fill="#3151ff" opacity="0.5"/>
    <rect id="Rectangle_47" data-name="Rectangle 47" width="65.353" height="37.615" transform="translate(1135.533 4495.921)" fill="#3151ff" opacity="0.5"/>
    <rect id="Rectangle_48" data-name="Rectangle 48" width="65.353" height="37.615" transform="translate(1143.308 4499.493)" fill="#eee"/>
    <path id="Path_38" data-name="Path 38" d="M917.311,344.694a.99.99,0,0,0,.21-.607v-.017s.013-.044.019-.065v-.027c0-.02,0-.041,0-.061,0,0,0-.017,0-.025a.423.423,0,0,0,0-.076c-.124-.841-5.119-6.317-6.367-13a11.81,11.81,0,0,0-.616-2.129,2.942,2.942,0,0,0-.067-1.03,5.556,5.556,0,0,1-.42-2.576,2.08,2.08,0,0,1,.116-.326,12.743,12.743,0,0,0,.721-1.2,2.889,2.889,0,0,0,.21-.42c.767-2.022-1.608-4.108-1.171-6.218.189-.914.9-1.713.878-2.644a2.829,2.829,0,0,0-2.019-2.286c-1.017-.4-2.137-.509-3.135-.95-2.188-.969-3.385-3.308-5.382-4.608-2.536-1.65-5.846-1.355-8.887-.929a.616.616,0,0,0-.467.345H890.9c-.023.067-.05.132-.08.2A6.237,6.237,0,0,1,889,307.813a7.374,7.374,0,0,0-2.288,2.085c-.078.132-.143.258-.2.38-1.135,2.024.229,2.9,1.891,3.383a5.232,5.232,0,0,0-.076.876,5.427,5.427,0,0,0,5.493,5.344,5.688,5.688,0,0,0,.717-.046l.177.116h.04a3.328,3.328,0,0,1,1.261,1.519l-1.761,1.345s.071.185.177.479l-6.922,3.19c-2.623.122-6.867-8.139-6.867-8.139s-.63-4.737-2.873-5.588c-.677-.256-.946.279-.992,1.154-1,1.051.681,6.951.681,6.951l5.369,9.475c.5.971.63,1.578,3,1.944,1.948.3,8.017-1.858,10.129-2.639l.1.841a4.923,4.923,0,0,0-.319,2.011c0,1.549.691,3.8,4.066,5.6,0,0,3.484,4.5,3.1,8.754,0,0,.168.177.437.408-.038,1.2-.21,2.675-.813,3.251a.321.321,0,0,0-.095.3.3.3,0,0,0,.147.326l-4.4,7.7c-.164.21-.33.42-.5.63a22.544,22.544,0,0,1-2.709,2.889,12.627,12.627,0,0,0-1.648,1.635,4.789,4.789,0,0,0-.572,2.9,15.129,15.129,0,0,1,.391,4.148l-.569,9.963a26,26,0,0,1-.788,3.289h-.086a10.167,10.167,0,0,1-5.493,3.152c-3.371.6-3.247,2.312-2.248,2.551s13.111-.244,13.111-.244a3.276,3.276,0,0,0,.332-1.708c3.867-.372,9.223-1,9.223-1s.733-1.763-.332-2.532a2.489,2.489,0,0,1-.853-1.212c-.063-.269-.132-.576-.2-.9-.017-.158-.017-.254-.017-.254h-.036a8.829,8.829,0,0,1-.25-2.473c.313-1.4,1.124-9.475-.874-11.782a2.976,2.976,0,0,1-.38-3.24,54.835,54.835,0,0,0,7.691-6.989c.109.09.21.181.3.271l.063.061s6.6-3.268,6.628-9.036a8.891,8.891,0,0,0-1.047-4.247Zm-21.142,40.691a3.39,3.39,0,0,1,.023-.63l-.21-.023a4.79,4.79,0,0,1,1.089-2.65,22.508,22.508,0,0,0,2.4-6.657l1.212,4.587s.122.95.156,1.954h-.021A10.245,10.245,0,0,1,896.169,385.385Z" transform="translate(330.643 4189.501)" opacity="0.5" fill="url(#linear-gradient-3)"/>
    <path id="Path_39" data-name="Path 39" d="M906.728,357.58a13.764,13.764,0,0,0-4.623,2.847s-8.067,3.2-10.322,2.847-2.372-.95-2.847-1.891l-5.1-9.246s-2.135-7.712,0-6.882,2.732,5.464,2.732,5.464,4.035,8.067,6.525,7.95l6.756-3.219s1.542-2.255,2.255-2.135S906.728,357.58,906.728,357.58Z" transform="translate(325.564 4157.893)" fill="#fdb797"/>
    <g id="Group_25" data-name="Group 25" transform="translate(1208.448 4503.085)" opacity="0.05">
      <path id="Path_40" data-name="Path 40" d="M906.728,357.58a13.764,13.764,0,0,0-4.623,2.847s-8.067,3.2-10.322,2.847-2.372-.95-2.847-1.891l-5.1-9.246s-2.135-7.712,0-6.882,2.732,5.464,2.732,5.464,4.035,8.067,6.525,7.95l6.756-3.219s1.542-2.255,2.255-2.135S906.728,357.58,906.728,357.58Z" transform="translate(-882.884 -345.193)"/>
    </g>
    <path id="Path_41" data-name="Path 41" d="M964.276,382.169l-2.366,1.858s1.183,3.1.887,4.18,4.732-1.7,4.732-1.7l-2.07-4.644Z" transform="translate(263.144 4128.93)" fill="#f9ce43"/>
    <g id="Group_26" data-name="Group 26" transform="translate(1225.054 4510.791)" opacity="0.05">
      <path id="Path_42" data-name="Path 42" d="M964.276,382.169l-2.366,1.858s1.183,3.1.887,4.18,4.732-1.7,4.732-1.7l-2.07-4.644Z" transform="translate(-961.91 -381.86)"/>
    </g>
    <path id="Path_43" data-name="Path 43" d="M953.73,360.126s5.279,1.721,2.847,4.745l7.592-3.677s-3.2.237-5.22-4.623Z" transform="translate(269.605 4148.906)" fill="#fdb797"/>
    <path id="Path_44" data-name="Path 44" d="M976.625,520.85,970.1,532.595l4.392,17.076s.475,3.8-.237,4.152h4.982s-.96-3.362-.712-4.507c.3-1.364,1.068-9.246-.841-11.507s.95-5.22.95-5.22l5.695-9.017Z" transform="translate(256.675 4019.147)" fill="#fdb797"/>
    <g id="Group_27" data-name="Group 27" transform="translate(1226.775 4539.998)" opacity="0.05">
      <path id="Path_45" data-name="Path 45" d="M976.625,520.85,970.1,532.595l4.392,17.076s.475,3.8-.237,4.152h4.982a19.263,19.263,0,0,1-.712-4.507c.177-1.126,1.068-9.246-.841-11.507s.95-5.22.95-5.22l5.695-9.017Z" transform="translate(-970.1 -520.85)"/>
    </g>
    <path id="Path_46" data-name="Path 46" d="M963.275,667.12a9.607,9.607,0,0,1-4.959,3.507c-3.152.845-2.9,2.492-1.931,2.652s12.4-1.225,12.4-1.225.7-1.721-.315-2.473a3.2,3.2,0,0,1-1.017-2.312Z" transform="translate(268.018 3903.615)" fill="#0d134d"/>
    <g id="Group_28" data-name="Group 28" transform="translate(1232.813 4535.25)" opacity="0.1">
      <path id="Path_47" data-name="Path 47" d="M999.675,498.26s.282,3.858-.746,4.871a.311.311,0,0,0,.063.5l3.055,1.629,2.732-5.22Z" transform="translate(-998.83 -498.26)"/>
    </g>
    <path id="Path_48" data-name="Path 48" d="M999.675,497.7s.282,3.858-.746,4.871a.311.311,0,0,0,.063.5l3.055,1.629,2.732-5.22Z" transform="translate(233.982 4037.433)" fill="#e23553"/>
    <g id="Group_29" data-name="Group 29" transform="translate(1232.813 4535.343)" opacity="0.1">
      <path id="Path_49" data-name="Path 49" d="M999.675,498.7s.282,3.858-.746,4.871a.311.311,0,0,0,.063.5l3.055,1.629,2.732-5.22Z" transform="translate(-998.83 -498.7)"/>
    </g>
    <path id="Path_50" data-name="Path 50" d="M958.4,533.83s-1.763,1.177-5.464,6.021a21.8,21.8,0,0,1-2.574,2.822,11.859,11.859,0,0,0-1.566,1.6,4.751,4.751,0,0,0-.542,2.828,15.183,15.183,0,0,1,.372,4.051l-.54,9.732s-.712,4.39-1.66,4.865l4.865.841s-.355-3.085,1.068-4.623a21.367,21.367,0,0,0,2.492-12.1,4.5,4.5,0,0,1,2.847-4.39c3.2-1.542,9.729-9.017,9.729-9.017Z" transform="translate(275.371 4008.895)" fill="#fdb797"/>
    <path id="Path_51" data-name="Path 51" d="M920.49,677.8a9.66,9.66,0,0,1-5.22,3.085c-3.2.593-3.085,2.255-2.135,2.492s12.457-.237,12.457-.237.841-1.66-.118-2.492a2.852,2.852,0,0,1-.712-2.372Z" transform="translate(302.133 3895.179)" fill="#0d134d"/>
    <g id="Group_30" data-name="Group 30" transform="translate(1233.365 4533.353)" opacity="0.1">
      <path id="Path_52" data-name="Path 52" d="M1004.838,492.315s-1.448,4.863-3.282,6.279a.235.235,0,0,0,.061.41c1.517.553,6.392,2.414,8.086,4.108l.059.059s10.143-5.161,4.686-13.941Z" transform="translate(-1001.461 -489.23)"/>
    </g>
    <path id="Path_53" data-name="Path 53" d="M1004.838,491.755s-1.448,4.863-3.282,6.279a.235.235,0,0,0,.061.41c1.517.553,6.392,2.414,8.086,4.108l.059.059s10.143-5.161,4.686-13.941Z" transform="translate(231.905 4044.565)" fill="#e23553"/>
    <g id="Group_31" data-name="Group 31" transform="translate(1225.966 4509.851)" opacity="0.1">
      <path id="Path_54" data-name="Path 54" d="M968.7,379.748a9.282,9.282,0,0,1-2.446,1.168l.815,7.256s-1.906,4.266,3.545,7.246c0,0,3.31,4.4,2.942,8.551,0,0,1.776,1.9,2.963,1.431s.118.237.355.12.71.952,4.39.01,6.3-3.423,6.18-4.255-4.848-6.182-6.018-12.711-8.158-11.173-8.158-11.173-.231.128-.63.3A27.624,27.624,0,0,0,968.7,379.748Z" transform="translate(-966.25 -377.39)"/>
    </g>
    <g id="Group_32" data-name="Group 32" transform="translate(1233.367 4533.235)" opacity="0.1">
      <path id="Path_55" data-name="Path 55" d="M1001.467,534a.231.231,0,0,0,.153.237,37.492,37.492,0,0,1,7.216,3.4C1007.01,536.162,1003.125,534.63,1001.467,534Z" transform="translate(-1001.466 -524.474)"/>
      <path id="Path_56" data-name="Path 56" d="M1044.106,488.67l-.21.071c4.663,8.151-4.119,13.075-4.886,13.485a3.925,3.925,0,0,1,.361.326l.059.059S1049.563,497.45,1044.106,488.67Z" transform="translate(-1031.121 -488.67)"/>
    </g>
    <path id="Path_57" data-name="Path 57" d="M981.17,404.437c-3.677.95-4.152-.118-4.39,0s.841-.593-.355-.118-2.965-1.425-2.965-1.425c.017-.21.025-.406.025-.609.013-3.967-3-7.933-3-7.933-5.464-2.965-3.56-7.237-3.56-7.237l-.223-1.946-.612-5.308a9.272,9.272,0,0,0,2.442-1.173,27.778,27.778,0,0,1,3.932-2.068c.4-.172.63-.3.63-.3s7,4.623,8.2,11.152,5.932,11.864,6.05,12.694S984.847,403.487,981.17,404.437Z" transform="translate(259.843 4133.306)" fill="#f9ce43"/>
    <g id="Group_33" data-name="Group 33" transform="translate(1223.453 4505.591)" opacity="0.1">
      <path id="Path_58" data-name="Path 58" d="M959.51,357.12l-5.22,3.56a8.88,8.88,0,0,1,2.036,1.015,4.781,4.781,0,0,0,3.6-3.091C959.64,358.145,959.766,357.736,959.51,357.12Z" transform="translate(-954.29 -357.12)"/>
    </g>
    <circle id="Ellipse_13" data-name="Ellipse 13" cx="5.22" cy="5.22" r="5.22" transform="translate(1219.421 4499.661)" fill="#fdb797"/>
    <g id="Group_34" data-name="Group 34" transform="translate(1225.943 4512.856)" opacity="0.1">
      <path id="Path_59" data-name="Path 59" d="M982.039,415.984c-3.677.95-4.152-.118-4.39,0s.841-.593-.355-.118-2.965-1.425-2.965-1.425c.017-.21.025-.406.025-.609.015-3.961-2.992-7.933-2.992-7.933-5.464-2.965-3.56-7.237-3.56-7.237l-.221-1.948L967,391.69a5.743,5.743,0,0,1-.864.309l.6,5.31.225,1.946s-1.891,4.272,3.56,7.237c0,0,3.007,3.972,2.992,7.933a4.878,4.878,0,0,1-.025.609s1.78,1.891,2.965,1.425.118.237.355.118.712.95,4.39,0a12.741,12.741,0,0,0,4.6-2.251A12.934,12.934,0,0,1,982.039,415.984Z" transform="translate(-966.14 -391.69)"/>
    </g>
    <path id="Path_60" data-name="Path 60" d="M905.318,362.5a13.765,13.765,0,0,0-4.623,2.847s-8.067,3.2-10.322,2.847-2.372-.95-2.847-1.891l-5.1-9.246s-2.135-7.712,0-6.882,2.732,5.464,2.732,5.464,4.035,8.067,6.525,7.95l6.758-3.224s1.542-2.255,2.255-2.135S905.318,362.5,905.318,362.5Z" transform="translate(326.677 4154.006)" fill="#fdb797"/>
    <g id="Group_35" data-name="Group 35" transform="translate(1224.76 4512.159)" opacity="0.1">
      <path id="Path_61" data-name="Path 61" d="M963.738,388.376s-2.461-.225-3.173,2.86,5.464,4.982,5.464,4.982l3.322-4.623Z" transform="translate(-960.508 -388.373)"/>
    </g>
    <path id="Path_62" data-name="Path 62" d="M964.308,388.376s-2.461-.225-3.173,2.86,5.464,4.982,5.464,4.982l3.322-4.623Z" transform="translate(263.802 4123.786)" fill="#f9ce43"/>
    <g id="Group_36" data-name="Group 36" transform="translate(1225.941 4509.626)" opacity="0.1">
      <path id="Path_63" data-name="Path 63" d="M967.294,391a6.368,6.368,0,0,1-1.164.45l.021.179a12.266,12.266,0,0,0,1.143-.628Z" transform="translate(-966.13 -387.915)"/>
      <path id="Path_64" data-name="Path 64" d="M999.622,400.167c-.118-.841-4.865-6.17-6.05-12.694s-8.2-11.152-8.2-11.152-.231.128-.63.3a28.452,28.452,0,0,0-3.106,1.566q1-.525,2.038-.971c.4-.172.63-.3.63-.3s7,4.623,8.2,11.152,5.932,11.864,6.05,12.694c.076.523-.935,1.706-2.614,2.749C998.245,402.365,999.712,400.793,999.622,400.167Z" transform="translate(-978.381 -376.32)"/>
    </g>
    <path id="Path_65" data-name="Path 65" d="M983.16,388.62s3.068,1.519,3.646,4.44" transform="translate(246.36 4123.591)" fill="none" stroke="#000" stroke-miterlimit="10" stroke-width="1" opacity="0.1"/>
    <g id="Group_37" data-name="Group 37" transform="translate(1217.308 4496.073)" opacity="0.1">
      <path id="Path_66" data-name="Path 66" d="M929.756,320.336a1.809,1.809,0,0,1,1.278.7c.174.319.143.721.313,1.051.437.824,1.719.54,2.522,1.023,1.471.887.511,3.652,1.975,4.543.275.168.6.235.885.389,1.238.677,1.063,2.467.841,3.86s.042,3.3,1.439,3.5c.769.107,1.633-.4,2.28.025.338.223.492.63.775.927a1.412,1.412,0,0,0,1.517.313c.475-.2.817-.649,1.311-.794.794-.233,1.681.41,2.446.113s.939-1.4.742-2.236a5.45,5.45,0,0,1-.391-2.522,19.791,19.791,0,0,1,.99-1.891c.727-1.973-1.528-4.012-1.112-6.073.181-.893.853-1.681.841-2.583a2.726,2.726,0,0,0-1.921-2.234c-.969-.387-2.032-.5-2.98-.927-2.078-.946-3.215-3.232-5.115-4.5a7.172,7.172,0,0,0-2.814-1.08,9.225,9.225,0,0,0-7.342,2c-.187.151-.378.294-.572.433a7.052,7.052,0,0,0-2.175,2.034C923.687,319.542,927.829,319.9,929.756,320.336Z" transform="translate(-925.046 -311.822)"/>
    </g>
    <path id="Path_67" data-name="Path 67" d="M930.457,318.935a1.809,1.809,0,0,1,1.278.7c.174.319.143.721.313,1.051.437.824,1.719.54,2.522,1.023,1.471.887.511,3.652,1.975,4.543.275.168.6.235.885.389,1.238.677,1.063,2.467.841,3.86s.042,3.3,1.439,3.5c.769.107,1.633-.4,2.28.025.338.223.492.63.775.927a1.412,1.412,0,0,0,1.517.313c.475-.2.817-.649,1.311-.794.794-.233,1.681.41,2.446.113s.939-1.4.742-2.236a5.449,5.449,0,0,1-.391-2.522,19.787,19.787,0,0,1,.99-1.891c.727-1.973-1.528-4.012-1.112-6.073.181-.893.853-1.681.841-2.583a2.726,2.726,0,0,0-1.921-2.234c-.969-.387-2.032-.5-2.98-.927-2.078-.946-3.215-3.232-5.115-4.5a7.039,7.039,0,0,0-2.543-1.03,9.231,9.231,0,0,0-7.62,1.95c-.185.149-.376.292-.565.42a7.053,7.053,0,0,0-2.175,2.034C924.388,318.141,928.532,318.5,930.457,318.935Z" transform="translate(291.708 4185.355)" fill="#3151ff"/>
    <path id="Path_68" data-name="Path 68" d="M609.464,468.932H572.9v-6.89C581.833,457.866,595.578,455.521,609.464,468.932Z" transform="translate(570.408 4068.176)" fill="#3151ff"/>
    <g id="Group_38" data-name="Group 38" transform="translate(1162.641 4526.954)" opacity="0.1">
      <path id="Path_69" data-name="Path 69" d="M710.5,467.947v.986H664.9v-.21S687.339,446.874,710.5,467.947Z" transform="translate(-664.9 -458.778)"/>
    </g>
    <path id="Path_70" data-name="Path 70" d="M712.5,467.947v.986H666.9v-.21S689.339,446.874,712.5,467.947Z" transform="translate(496.161 4068.176)" fill="#3151ff"/>
    <circle id="Ellipse_14" data-name="Ellipse 14" cx="3.362" cy="3.362" r="3.362" transform="translate(1147.511 4502.855)" fill="#3151ff"/>
    <path id="Path_71" data-name="Path 71" d="M732.1,347.674c-.385,0-.813,0-1.105.023a1.346,1.346,0,0,0-.382.078l-1.977.71c1.6.04,3.263.027,4.9.015l9.179-.071c.937,0,1.921-.017,2.7-.071.523-.038.908-.092,1.391-.134,1.738-.156,4.27-.126,6.533-.118a35.476,35.476,0,0,0,5.791-.277h-4.858c-.523,0-1.074,0-1.536-.025-.54-.032-.87-.09-1.345-.132-.786-.067-1.87-.076-2.879-.08C742.97,347.566,737.5,347.7,732.1,347.674Z" transform="translate(447.403 4156.001)" fill="#f4f4f4"/>
    <path id="Path_72" data-name="Path 72" d="M768.2,367.3h-.24a.292.292,0,0,0-.084.017l-.42.153h1.061l1.988-.015c.21,0,.42,0,.584-.015.113,0,.2-.021.3-.029.376-.034.925-.027,1.416-.025a7.715,7.715,0,0,0,1.261-.061h-1.383a2.858,2.858,0,0,1-.292-.029c-.17-.015-.406-.017-.63-.017C770.568,367.28,769.383,367.307,768.2,367.3Z" transform="translate(416.733 4140.446)" fill="#f4f4f4"/>
    <path id="Path_73" data-name="Path 73" d="M701.2,395.3h-.24a.291.291,0,0,0-.084.017l-.42.153h1.061l1.988-.015c.21,0,.42,0,.584-.015.114,0,.2-.021.3-.029.376-.034.925-.027,1.416-.025a7.715,7.715,0,0,0,1.261-.061h-1.383a2.868,2.868,0,0,1-.292-.029c-.17-.015-.406-.017-.63-.017C703.568,395.28,702.383,395.307,701.2,395.3Z" transform="translate(469.654 4118.331)" fill="#f4f4f4"/>
    <path id="Path_74" data-name="Path 74" d="M660.277,413.225H658.7s-.494-17.282,1.58-22.615h.4S659.289,410.163,660.277,413.225Z" transform="translate(502.681 4122.019)" fill="#3151ff"/>
    <path id="Path_75" data-name="Path 75" d="M641.912,353.735s-1.284,3.556-.691,5.136c0,0,.889-3.259,1.925-3.753s2.122,3.753,2.122,3.753a8.229,8.229,0,0,0-.494-4.833,8.585,8.585,0,0,1,3.259,3.457s.2-1.471-2.37-4.543a10.021,10.021,0,0,1,3.753,1.975s.494-1.086-2.568-2.864c0,0,.4-1.284,2.765-.691,0,0,0-1.681-3.753-1.383,0,0,0-1.086,2.469-.889,0,0,0-1.383-2.864-.889a4.34,4.34,0,0,1,.988-1.086,1.986,1.986,0,0,0-1.383.4,2.676,2.676,0,0,0-1.383-2.469l-.2,2.469s-1.66-1.956-1.284-1.58a4.332,4.332,0,0,1,.3,1.877,3.079,3.079,0,0,0-3.753.1s2.568.2,2.963,1.086c0,0-2.173-.4-2.667-.1,0,0,1.681.593,1.58.988,0,0-2.963,0-3.362,1.086,0,0,3.062.4,3.259.691,0,0-3.556,2.568-3.753,3.259,0,0,3.654-2.173,4.247-2.173s-2.667,3.152-2.469,3.951C638.556,356.7,641.231,353.537,641.912,353.735Z" transform="translate(519.96 4158.005)" fill="#3151ff"/>
    <path id="Path_76" data-name="Path 76" d="M758.023,430.208h1.206s.378-13.2-1.206-17.278h-.3S758.779,427.865,758.023,430.208Z" transform="translate(424.426 4104.389)" fill="#3151ff"/>
    <path id="Path_77" data-name="Path 77" d="M741,384.756s.981,2.717.527,3.923c0,0-.679-2.49-1.471-2.866s-1.622,2.866-1.622,2.866a6.3,6.3,0,0,1,.378-3.7,6.558,6.558,0,0,0-2.49,2.641s-.151-1.133,1.811-3.471a7.632,7.632,0,0,0-2.866,1.509s-.378-.83,1.963-2.188c0,0-.3-.981-2.112-.527,0,0,0-1.282,2.866-1.051,0,0,0-.83-1.891-.679,0,0,0-1.051,2.188-.679a3.306,3.306,0,0,0-.754-.83,1.517,1.517,0,0,1,1.051.3,2.057,2.057,0,0,1,1.051-1.891l.151,1.891s1.261-1.494.981-1.206a3.31,3.31,0,0,0-.227,1.433,2.36,2.36,0,0,1,2.866.076s-1.963.151-2.263.83a5.691,5.691,0,0,1,2.036-.076s-1.282.452-1.206.754c0,0,2.263,0,2.566.83a11.45,11.45,0,0,0-2.49.527s2.717,1.963,2.866,2.49a21.308,21.308,0,0,0-3.245-1.66c-.454,0,2.036,2.414,1.891,3.018C743.568,387.019,741.531,384.609,741,384.756Z" transform="translate(442.277 4131.884)" fill="#3151ff"/>
    <path id="Path_78" data-name="Path 78" d="M827.187,442.65h.748s.233-8.177-.748-10.7H827S827.654,441.207,827.187,442.65Z" transform="translate(369.705 4089.366)" fill="#3151ff"/>
    <path id="Path_79" data-name="Path 79" d="M816.636,414.485a5.143,5.143,0,0,1,.328,2.429s-.42-1.542-.912-1.776-1,1.776-1,1.776a3.916,3.916,0,0,1,.233-2.29,4.062,4.062,0,0,0-1.542,1.635s-.093-.7,1.122-2.15a4.741,4.741,0,0,0-1.776.935s-.233-.515,1.215-1.355c0,0-.187-.607-1.309-.328,0,0,0-.794,1.776-.654,0,0,0-.515-1.168-.42,0,0,0-.654,1.355-.42a2.052,2.052,0,0,0-.466-.515.939.939,0,0,1,.654.187,1.268,1.268,0,0,1,.654-1.168l.092,1.168s.786-.925.607-.748a2.05,2.05,0,0,0-.141.887,1.456,1.456,0,0,1,1.776.046s-1.215.092-1.4.515a3.519,3.519,0,0,1,1.261-.046s-.794.279-.748.466c0,0,1.4,0,1.589.515a7.02,7.02,0,0,0-1.542.328,9.9,9.9,0,0,1,1.776,1.542,13.268,13.268,0,0,0-2.009-1.028c-.28,0,1.261,1.5,1.168,1.868C818.225,415.886,816.962,414.39,816.636,414.485Z" transform="translate(380.77 4106.411)" fill="#3151ff"/>
    <path id="Path_80" data-name="Path 80" d="M681.882,425.814h0l-.158-.841a.456.456,0,0,0-.143-.33l-.729-.357h0a.825.825,0,0,1-.13-.21l.013-.019a.437.437,0,0,0,.084-.17.291.291,0,0,0,0-.048h.01a.271.271,0,0,0,.3-.21v-.019a.271.271,0,0,1-.246.21.744.744,0,0,0,.33-.618v-.031a.269.269,0,0,0,.124-.181v-.019a.269.269,0,0,1-.128.168.737.737,0,0,0-.046-.21h.019a.271.271,0,0,0,.271-.271v-.019a.271.271,0,0,1-.269.252h-.034v-.013a.443.443,0,0,0,.311-.359V422.5a.27.27,0,0,1-.055.145.271.271,0,0,0-.534-.08l-.048-.027a.271.271,0,0,1,.244-.2h-.019a.271.271,0,0,0-.259.183.744.744,0,0,0-.937.269c-.057.042-.13.1-.128.156a.513.513,0,0,0-.065.08,1.029,1.029,0,0,0-.084.561.6.6,0,0,1-.193.515.256.256,0,0,0,.2,0,.761.761,0,0,0,.174-.1.391.391,0,0,0,.124-.12v-.01a.615.615,0,0,0,.111.059c.015.126.019.271-.038.319h0l.01-.023a.683.683,0,0,1-.473.134.591.591,0,0,0-.49.315l-.229.956h0v.017h0v.017h0a.073.073,0,0,0,.055.053l.071.019a1.485,1.485,0,0,1-.048.485,4.14,4.14,0,0,0-.082.714c.017.12.046.744.061,1.04a3.069,3.069,0,0,0-.061.307l-.338,2.03s-.252,1.624-.24,2.116l-.044.284s-.687.862-.485.983.513.174.809-.284a.742.742,0,0,1,.189-.284.277.277,0,0,0,.095-.237l-.021-.21.036.013h.021a7.007,7.007,0,0,0,.3-1.891,8.749,8.749,0,0,1,1.1-2.583V428.2l.044-.021.1,2.162-.1,2.383-.023.143s-.687.862-.485.983.513.174.809-.284a.742.742,0,0,1,.189-.284.277.277,0,0,0,.095-.237l-.031-.315a6.134,6.134,0,0,0,.3-2.227l.21-1.425a1.532,1.532,0,0,0,.183-.841,7.871,7.871,0,0,0,.21-1.706l.042-.672a.556.556,0,0,1,.095,0h.034v-.013a.064.064,0,0,0,.015-.019h.013v-.017h0Zm-.588,1.366q-.028-.069-.063-.139h-.017v-.017a.081.081,0,0,1,0-.017v-.017a.583.583,0,0,0,.025-.069.263.263,0,0,0,.04-.145A1.376,1.376,0,0,1,681.294,427.18Zm-.063-.576-.042-.45.013-.036.057.572Zm-1.992.061a.158.158,0,0,0-.038.122v.015a.506.506,0,0,0,.019.134l-.065.282v-.538a1.181,1.181,0,0,0,.113-.181.294.294,0,0,1-.029.166Z" transform="translate(487.691 4096.957)" fill="url(#linear-gradient-4)"/>
    <path id="Path_81" data-name="Path 81" d="M686.319,425.715a.992.992,0,0,0-.082.54.574.574,0,0,1-.187.5.248.248,0,0,0,.191,0,.735.735,0,0,0,.168-.1.376.376,0,0,0,.12-.116.445.445,0,0,0,.027-.229,2.427,2.427,0,0,1,.036-.41c.013-.084.092-.313,0-.357S686.359,425.652,686.319,425.715Z" transform="translate(481.035 4094.435)" fill="#72351c"/>
    <path id="Path_82" data-name="Path 82" d="M678.586,468.728l-.065.42s-.662.841-.467.948.494.168.78-.273a.714.714,0,0,1,.181-.273h0a.267.267,0,0,0,.09-.229l-.065-.641Z" transform="translate(487.379 4060.354)" fill="#333"/>
    <path id="Path_83" data-name="Path 83" d="M688.066,469.518l-.065.42s-.662.841-.466.948.494.168.78-.273a.715.715,0,0,1,.181-.273h0a.267.267,0,0,0,.09-.229l-.065-.641Z" transform="translate(479.891 4059.73)" fill="#333"/>
    <path id="Path_84" data-name="Path 84" d="M681.618,445.048a1.5,1.5,0,0,0-.42,1.007l-.326,1.956a17.264,17.264,0,0,0-.225,2.114l.551.189a6.768,6.768,0,0,0,.29-1.818s.662-2.358,1.126-2.522l.1,2.082-.105,2.343.471.095a6.416,6.416,0,0,0,.326-2.282l.246-1.681a2.51,2.51,0,0,0-.109-1.681Z" transform="translate(485.308 4079.177)" fill="#4d8af0"/>
    <g id="Group_39" data-name="Group 39" transform="translate(1166.463 4524.038)" opacity="0.1">
      <path id="Path_85" data-name="Path 85" d="M684.5,450.216v-.036c-.464.166-1.126,2.522-1.126,2.522a6.623,6.623,0,0,1-.284,1.8l.059.021a6.768,6.768,0,0,0,.29-1.818A8.4,8.4,0,0,1,684.5,450.216Z" transform="translate(-683.09 -449.07)"/>
      <path id="Path_86" data-name="Path 86" d="M692.555,444.9h-.063a2.488,2.488,0,0,1,.105,1.666l-.246,1.681a6.272,6.272,0,0,1-.321,2.27l.061.013a6.415,6.415,0,0,0,.326-2.282l.246-1.681A2.462,2.462,0,0,0,692.555,444.9Z" transform="translate(-690.151 -444.9)"/>
    </g>
    <path id="Path_87" data-name="Path 87" d="M683.28,438.192a.069.069,0,0,0,.055.069,1.088,1.088,0,0,1,.42.21c.231.181-.246-.361-.246-.361l-.16.036-.065.059Z" transform="translate(483.223 4084.501)" fill="#f55f44"/>
    <path id="Path_88" data-name="Path 88" d="M683.28,438.192a.069.069,0,0,0,.055.069,1.088,1.088,0,0,1,.42.21c.231.181-.246-.361-.246-.361l-.16.036-.065.059Z" transform="translate(483.223 4084.501)" opacity="0.1"/>
    <path id="Path_89" data-name="Path 89" d="M694.1,439.417a1.472,1.472,0,0,1,.656-.258.061.061,0,0,0,.061-.061h0A.523.523,0,0,0,694.1,439.417Z" transform="translate(474.677 4083.755)" fill="#f55f44"/>
    <path id="Path_90" data-name="Path 90" d="M694.817,439.1a.529.529,0,0,0-.717.319s.406-.311.687-.261" transform="translate(474.677 4083.755)" opacity="0.1"/>
    <circle id="Ellipse_15" data-name="Ellipse 15" cx="0.717" cy="0.717" r="0.717" transform="translate(1167.422 4519.602)" fill="#72351c"/>
    <path id="Path_91" data-name="Path 91" d="M687.933,428.145s.1.42,0,.506-.3.246-.151.37.7.334.885.231.391-.071.34-.282-.45-.166-.456-1.21Z" transform="translate(479.711 4092.676)" fill="#fdb797"/>
    <path id="Path_92" data-name="Path 92" d="M683.414,437.9a2.626,2.626,0,0,1-.044.681,3.99,3.99,0,0,0-.08.687c.021.151.065,1.152.065,1.152s-.08.876.347.8-.065-1-.065-1l.021-1.2a1.116,1.116,0,0,0,.21-.536C683.9,438.2,683.414,437.9,683.414,437.9Z" transform="translate(483.215 4084.667)" opacity="0.1"/>
    <path id="Path_93" data-name="Path 93" d="M683.384,437.9a2.621,2.621,0,0,1-.044.681,3.99,3.99,0,0,0-.08.687c.021.151.065,1.152.065,1.152s-.08.876.347.8-.065-1-.065-1l.021-1.2a1.116,1.116,0,0,0,.21-.536C683.867,438.2,683.384,437.9,683.384,437.9Z" transform="translate(483.239 4084.667)" fill="#fdb797"/>
    <path id="Path_94" data-name="Path 94" d="M693.786,438.21l-.059.935a7.478,7.478,0,0,1-.2,1.643s.044.92-.385.9.071-1.007.071-1.007a4.131,4.131,0,0,0,.111-1.347l-.111-1.122Z" transform="translate(475.567 4084.422)" opacity="0.1"/>
    <path id="Path_95" data-name="Path 95" d="M693.816,438.21l-.059.935a7.478,7.478,0,0,1-.2,1.643s.044.92-.385.9.071-1.007.071-1.007a4.131,4.131,0,0,0,.111-1.347l-.111-1.122Z" transform="translate(475.543 4084.422)" fill="#fdb797"/>
    <path id="Path_96" data-name="Path 96" d="M684.668,432.415s.347.16.536-.315l.7.345a.439.439,0,0,1,.137.319l.151.811a.519.519,0,0,0-.675.3l.044.456h0a.492.492,0,0,1-.023.34.076.076,0,0,0,0,.061.223.223,0,0,1-.21.29,4.269,4.269,0,0,0-.565.044c-.151.044-.609-.086-.761,0s-.471-.065-.471-.065l.086-.37s-.059-.181.015-.246a1.564,1.564,0,0,0-.036-.79s-.261-.246-.42-.21l.21-.935a.567.567,0,0,1,.471-.3.66.66,0,0,0,.456-.13S684.159,432.365,684.668,432.415Z" transform="translate(483.302 4089.311)" opacity="0.1"/>
    <path id="Path_97" data-name="Path 97" d="M684.7,432.3c.095.025.347.053.5-.328l.7.345a.439.439,0,0,1,.137.319l.151.811a.519.519,0,0,0-.675.3l.044.456.029.09a.258.258,0,0,1-.036.231.082.082,0,0,0-.015.084.223.223,0,0,1-.21.29,4.269,4.269,0,0,0-.565.044c-.151.044-.609-.086-.761,0s-.471-.065-.471-.065l.086-.37s-.059-.181.015-.246a1.564,1.564,0,0,0-.036-.79s-.261-.246-.42-.21l.21-.935a.567.567,0,0,1,.471-.3.66.66,0,0,0,.456-.13s-.17.311.277.378Z" transform="translate(483.302 4089.406)" opacity="0.1"/>
    <path id="Path_98" data-name="Path 98" d="M684.7,432.358c.095.025.347.053.5-.328l.7.345a.439.439,0,0,1,.137.319l.151.811a.519.519,0,0,0-.675.3l.044.456h0a.492.492,0,0,1-.023.34.076.076,0,0,0,0,.061.223.223,0,0,1-.21.29,4.269,4.269,0,0,0-.565.044c-.151.044-.609-.086-.761,0s-.471-.065-.471-.065l.086-.37s-.059-.181.015-.246a1.564,1.564,0,0,0-.036-.79s-.261-.246-.42-.21l.21-.935a.567.567,0,0,1,.471-.3.66.66,0,0,0,.456-.13s-.17.311.277.378Z" transform="translate(483.31 4089.366)" fill="#f55f44"/>
    <path id="Path_99" data-name="Path 99" d="M689.386,427.94l-.616.385a2.005,2.005,0,0,1,.036.21.592.592,0,0,0,.221.042.631.631,0,0,0,.4-.181,2.391,2.391,0,0,1-.04-.456Z" transform="translate(478.887 4092.533)" opacity="0.1"/>
    <circle id="Ellipse_16" data-name="Ellipse 16" cx="0.595" cy="0.595" r="0.595" transform="translate(1167.306 4519.875)" fill="#fdb797"/>
    <circle id="Ellipse_17" data-name="Ellipse 17" cx="0.261" cy="0.261" r="0.261" transform="translate(1168.516 4519.492)" fill="#72351c"/>
    <path id="Path_100" data-name="Path 100" d="M693.361,424.912a.261.261,0,0,1-.261-.242v.019a.261.261,0,1,0,.521,0v-.019A.261.261,0,0,1,693.361,424.912Z" transform="translate(475.467 4095.116)" fill="#72351c"/>
    <path id="Path_101" data-name="Path 101" d="M692.824,425.926a.261.261,0,0,1-.21-.286v.017a.261.261,0,0,0,.513.095v-.019A.261.261,0,0,1,692.824,425.926Z" transform="translate(475.855 4094.35)" fill="#72351c"/>
    <path id="Path_102" data-name="Path 102" d="M691.864,428.926a.261.261,0,0,1-.21-.286v.017a.261.261,0,0,0,.513.095v-.019A.261.261,0,0,1,691.864,428.926Z" transform="translate(476.613 4091.981)" fill="#72351c"/>
    <path id="Path_103" data-name="Path 103" d="M693.361,424.244A.261.261,0,0,1,693.1,424v.019a.261.261,0,0,0,.521,0V424A.261.261,0,0,1,693.361,424.244Z" transform="translate(475.467 4095.646)" fill="#72351c"/>
    <path id="Path_104" data-name="Path 104" d="M692.484,423.518a.261.261,0,0,1,.246-.258h-.019a.261.261,0,0,0,0,.521h.019A.261.261,0,0,1,692.484,423.518Z" transform="translate(475.98 4096.23)" fill="#72351c"/>
    <path id="Path_105" data-name="Path 105" d="M693.818,436.19a.939.939,0,0,1,0,.391s-.036.34.021.4" transform="translate(474.908 4086.017)" opacity="0.1"/>
    <path id="Path_106" data-name="Path 106" d="M685.438,436.57a.937.937,0,0,1,0,.391s-.036.34.021.4" transform="translate(481.527 4085.717)" opacity="0.1"/>
    <path id="Path_107" data-name="Path 107" d="M685.41,443.161a.259.259,0,0,0,.174,0,.361.361,0,0,1,.21,0" transform="translate(481.541 4080.523)" opacity="0.1"/>
    <path id="Path_108" data-name="Path 108" d="M685.83,440.425a1.5,1.5,0,0,0,.6-.095s.74.181.95.05" transform="translate(481.209 4082.747)" opacity="0.1"/>
    <rect id="Rectangle_49" data-name="Rectangle 49" width="0.456" height="0.282" rx="0.141" transform="translate(1166.501 4526.294)" fill="#fdb797"/>
    <path id="Path_109" data-name="Path 109" d="M683.28,455.961l.244-.01.21.034h-.074Z" transform="translate(483.223 4070.409)" fill="#f0e4e4"/>
    <path id="Path_110" data-name="Path 110" d="M691.1,450.39h.244l.21.021h-.074Z" transform="translate(477.047 4074.801)" fill="#f0e4e4"/>
    <path id="Path_111" data-name="Path 111" d="M691.1,450.63h.244l.21.021h-.074Z" transform="translate(477.047 4074.612)" fill="#f0e4e4"/>
    <path id="Path_112" data-name="Path 112" d="M691.1,450.88h.244l.21.021h-.074Z" transform="translate(477.047 4074.414)" fill="#f0e4e4"/>
    <path id="Path_113" data-name="Path 113" d="M691.1,451.12h.244l.21.021h-.074Z" transform="translate(477.047 4074.225)" fill="#f0e4e4"/>
    <path id="Path_114" data-name="Path 114" d="M683.28,456.93h.244l.21.025h-.074Z" transform="translate(483.223 4069.635)" fill="#f0e4e4"/>
    <path id="Path_115" data-name="Path 115" d="M683.28,456.81h.244l.21.025h-.074Z" transform="translate(483.223 4069.73)" fill="#f0e4e4"/>
    <path id="Path_116" data-name="Path 116" d="M683.28,456.69h.244l.21.025h-.074Z" transform="translate(483.223 4069.825)" fill="#f0e4e4"/>
    <path id="Path_117" data-name="Path 117" d="M683.28,456.57h.244l.21.025h-.074Z" transform="translate(483.223 4069.92)" fill="#f0e4e4"/>
    <path id="Path_118" data-name="Path 118" d="M683.28,455.781l.244-.01.21.034h-.074Z" transform="translate(483.223 4070.552)" fill="#f0e4e4"/>
    <path id="Path_119" data-name="Path 119" d="M683.28,455.57l.244-.01.21.034h-.074Z" transform="translate(483.223 4070.718)" fill="#f0e4e4"/>
    <path id="Path_120" data-name="Path 120" d="M690.38,425.089a1.437,1.437,0,0,0,.084.656.779.779,0,0,1-.032.63.21.21,0,0,0,.185-.046.717.717,0,0,0,.135-.158.42.42,0,0,0,.082-.164.65.65,0,0,0-.042-.277,3.571,3.571,0,0,1-.088-.49c-.013-.1,0-.391-.113-.42S690.4,425,690.38,425.089Z" transform="translate(477.621 4095)" opacity="0.1"/>
    <path id="Path_121" data-name="Path 121" d="M690.451,425.059a1.437,1.437,0,0,0,.084.656.78.78,0,0,1-.031.63.21.21,0,0,0,.185-.046.718.718,0,0,0,.134-.158.421.421,0,0,0,.082-.164.65.65,0,0,0-.042-.277,3.571,3.571,0,0,1-.088-.49c-.013-.1,0-.391-.113-.42S690.471,424.972,690.451,425.059Z" transform="translate(477.566 4095.024)" fill="#72351c"/>
    <path id="Path_122" data-name="Path 122" d="M687.984,424.7c.05.053.061.13.1.189a.372.372,0,0,0,.294.118.166.166,0,0,1,.086.019c.046.029.048.1.078.143a.168.168,0,0,0,.246,0,.405.405,0,0,0,.095-.258,1.617,1.617,0,0,0,0-.313.479.479,0,0,0-.132-.319.559.559,0,0,0-.233-.1.691.691,0,0,0-.359-.027.646.646,0,0,0-.164.082q-.107.069-.21.141c-.078.055-.225.164-.082.223C687.795,424.642,687.908,424.623,687.984,424.7Z" transform="translate(479.776 4095.533)" opacity="0.1"/>
    <path id="Path_123" data-name="Path 123" d="M688.054,424.665c.05.053.061.13.1.189a.372.372,0,0,0,.294.118.165.165,0,0,1,.086.019c.046.029.048.1.078.143a.168.168,0,0,0,.246,0,.405.405,0,0,0,.095-.258,1.626,1.626,0,0,0,0-.313.479.479,0,0,0-.132-.319.559.559,0,0,0-.233-.1.691.691,0,0,0-.359-.027.646.646,0,0,0-.164.082q-.107.069-.21.141c-.078.055-.225.164-.082.223C687.865,424.6,687.984,424.585,688.054,424.665Z" transform="translate(479.721 4095.565)" fill="#72351c"/>
    <path id="Path_124" data-name="Path 124" d="M691.17,450.39h.244l.21.021h-.069Z" transform="translate(476.991 4074.801)" fill="#f0e4e4"/>
    <path id="Path_125" data-name="Path 125" d="M691.17,450.63h.244l.21.021h-.069Z" transform="translate(476.991 4074.612)" fill="#f0e4e4"/>
    <path id="Path_126" data-name="Path 126" d="M691.17,450.88h.244l.21.021h-.069Z" transform="translate(476.991 4074.414)" fill="#f0e4e4"/>
    <path id="Path_127" data-name="Path 127" d="M691.17,451.12h.244l.21.021h-.069Z" transform="translate(476.991 4074.225)" fill="#f0e4e4"/>
    <path id="Path_128" data-name="Path 128" d="M690.67,464.39h.244l.21.021h-.074Z" transform="translate(477.386 4063.743)" fill="#f0e4e4"/>
    <path id="Path_129" data-name="Path 129" d="M690.67,464.64h.244l.21.021h-.074Z" transform="translate(477.386 4063.546)" fill="#f0e4e4"/>
    <path id="Path_130" data-name="Path 130" d="M690.67,464.88h.244l.21.021h-.074Z" transform="translate(477.386 4063.356)" fill="#f0e4e4"/>
    <path id="Path_131" data-name="Path 131" d="M690.67,465.12h.244l.21.021h-.074Z" transform="translate(477.386 4063.167)" fill="#f0e4e4"/>
  </g>
</svg>
